<?xml version="1.0" standalone="no"?>
<!DOCTYPE svg PUBLIC "-//W3C//DTD SVG 20010904//EN"
 "http://www.w3.org/TR/2001/REC-SVG-20010904/DTD/svg10.dtd">
<svg version="1.0" xmlns="http://www.w3.org/2000/svg"
 width="1754.000000pt" height="1241.000000pt" viewBox="0 0 1754.000000 1241.000000"
 preserveAspectRatio="xMidYMid meet">
 svg {cursor: pointer}
<metadata>
Created by potrace 1.16, written by Peter Selinger 2001-2019
</metadata>
<g transform="translate(0.000000,1241.000000) scale(0.100000,-0.100000)"
fill="#000000" stroke="none">
<path d="M8933 11603 c-12 -2 -34 -18 -48 -34 l-25 -31 0 -745 0 -745 29 -29
c29 -29 30 -29 149 -29 116 0 120 1 146 26 l26 27 0 751 c0 835 4 786 -68 806
-36 10 -164 12 -209 3z"/>
<path d="M11752 9728 c-282 -282 -520 -525 -528 -540 -31 -59 -21 -85 69 -175
90 -90 116 -100 175 -69 15 8 258 246 540 528 l512 513 0 45 c0 42 -4 48 -83
127 -79 79 -85 83 -127 83 l-44 0 -514 -512z"/>
<path d="M8941 9263 c-19 -10 -44 -31 -55 -46 -21 -28 -21 -36 -18 -505 12
-1909 24 -3622 32 -4634 10 -1330 4 -1233 83 -1269 39 -17 70 -19 417 -19 449
1 537 7 624 48 117 55 207 172 241 314 9 36 20 154 25 273 17 360 60 528 221
845 82 162 141 253 427 662 244 349 265 381 344 523 156 280 264 604 309 935
22 156 17 516 -10 690 -55 362 -157 655 -326 939 -182 304 -462 600 -757 799
-407 274 -909 442 -1373 458 -132 5 -154 3 -184 -13z m419 -289 c631 -92 1193
-440 1573 -976 415 -586 512 -1415 246 -2104 -91 -235 -178 -383 -466 -790
-302 -427 -406 -596 -510 -825 -118 -262 -168 -460 -183 -729 -21 -362 -32
-405 -111 -450 l-44 -25 -341 -3 -340 -3 -13 1918 c-6 1055 -16 2385 -21 2957
-6 571 -7 1042 -4 1047 6 10 48 7 214 -17z"/>
<path d="M8115 9259 c-103 -10 -314 -49 -460 -85 -328 -82 -562 -181 -825
-351 -270 -175 -550 -470 -759 -801 -194 -306 -316 -602 -420 -1017 -132 -530
-399 -1703 -411 -1809 -14 -122 1 -187 59 -249 68 -74 135 -88 441 -94 155 -3
260 -9 268 -16 10 -8 11 -95 6 -436 -6 -378 -5 -436 10 -511 36 -182 143 -338
275 -402 l66 -33 247 -5 c183 -4 250 -8 260 -18 9 -9 14 -63 18 -185 5 -159 7
-176 31 -228 50 -106 143 -185 254 -214 89 -23 1127 -23 1183 0 43 19 79 50
98 87 12 23 14 488 14 3155 0 3120 0 3128 -20 3161 -38 61 -109 72 -335 51z
m75 -3235 l0 -2955 -481 3 -481 3 -29 33 c-28 32 -29 34 -29 150 -1 240 -30
336 -124 399 -82 56 -128 65 -361 69 -115 2 -220 4 -232 4 -36 0 -97 64 -129
132 l-29 63 0 470 c-1 259 -4 486 -9 505 -13 54 -41 102 -83 141 -80 77 -138
89 -417 89 -118 0 -228 3 -245 6 -30 6 -31 8 -25 43 18 100 317 1389 389 1676
94 378 144 524 255 751 171 348 461 713 720 907 170 127 402 252 583 316 185
65 680 171 720 153 4 -2 7 -1333 7 -2958z"/>
<path d="M12254 7140 c-45 -18 -54 -46 -54 -173 0 -112 1 -119 25 -142 l24
-25 756 0 756 0 24 25 c24 23 25 30 25 144 0 112 -2 122 -24 148 l-24 28 -744
2 c-408 1 -753 -2 -764 -7z"/>
<path d="M1600 1620 l0 -400 70 0 70 0 0 400 0 400 -70 0 -70 0 0 -400z"/>
<path d="M1930 1620 l0 -400 70 0 70 0 0 165 0 165 89 0 88 0 144 -164 144
-165 88 0 c48 -1 87 1 87 3 0 2 -63 75 -140 162 l-139 159 149 3 150 3 0 234
0 235 -400 0 -400 0 0 -400z m660 160 l0 -90 -260 0 -260 0 0 90 0 90 260 0
260 0 0 -90z"/>
<path d="M2910 1620 l0 -400 400 0 400 0 0 400 0 400 -400 0 -400 0 0 -400z
m660 -5 l0 -255 -255 0 -255 0 0 255 0 255 255 0 255 0 0 -255z"/>
<path d="M3900 1620 l0 -400 70 0 70 0 2 286 3 285 249 -285 249 -286 74 0 73
0 0 400 0 400 -70 0 -70 0 -2 -296 -3 -296 -250 296 -250 296 -72 0 -73 0 0
-400z"/>
<path d="M4880 1620 l0 -400 565 0 565 0 0 400 0 400 -75 0 -75 0 0 -330 0
-330 -175 0 -175 0 0 330 0 330 -70 0 -70 0 0 -330 0 -330 -175 0 -175 0 0
330 0 330 -70 0 -70 0 0 -400z"/>
<path d="M6190 1620 l0 -400 400 0 400 0 0 400 0 400 -400 0 -400 0 0 -400z
m660 -5 l0 -255 -260 0 -260 0 0 255 0 255 260 0 260 0 0 -255z"/>
<path d="M7170 1620 l0 -400 75 0 75 0 0 165 0 165 88 -1 87 0 143 -165 144
-164 84 0 c46 0 84 3 84 8 -1 4 -63 77 -139 162 l-139 155 149 3 149 3 0 234
0 235 -400 0 -400 0 0 -400z m660 160 l0 -90 -255 0 -255 0 0 90 0 90 255 0
255 0 0 -90z"/>
<path d="M8160 1620 l0 -400 70 0 70 0 2 166 3 165 210 -165 210 -166 105 0
c88 0 102 2 90 14 -8 7 -100 82 -205 166 -104 85 -204 166 -222 181 l-32 28
234 198 c129 109 234 201 234 206 1 4 -43 7 -98 7 l-98 0 -214 -168 -214 -168
-3 168 -2 168 -70 0 -70 0 0 -400z"/>
<path d="M9570 1620 l0 -400 70 0 70 0 0 400 0 400 -70 0 -70 0 0 -400z"/>
<path d="M9900 1620 l0 -400 70 0 70 0 2 285 3 284 248 -284 248 -285 75 0 74
0 0 400 0 400 -70 0 -70 0 -2 -297 -3 -297 -250 297 -250 296 -72 1 -73 0 0
-400z"/>
<path d="M10880 1785 l0 -235 325 0 325 0 0 -95 0 -95 -325 0 -325 0 0 -70 0
-70 400 0 400 0 0 235 0 235 -330 0 -330 0 0 90 0 90 330 0 330 0 0 75 0 75
-400 0 -400 0 0 -235z"/>
<path d="M11860 1620 l0 -400 70 0 70 0 0 400 0 400 -70 0 -70 0 0 -400z"/>
<path d="M12190 1620 l0 -400 400 0 400 0 0 235 0 235 -155 0 -155 0 0 -70 0
-70 80 0 80 0 0 -95 0 -95 -255 0 -255 0 0 255 0 255 330 0 330 0 0 75 0 75
-400 0 -400 0 0 -400z"/>
<path d="M13170 1620 l0 -400 70 0 70 0 0 165 0 165 260 0 260 0 0 -165 0
-165 70 0 70 0 0 400 0 400 -70 0 -70 0 0 -165 0 -165 -260 0 -260 0 0 165 0
165 -70 0 -70 0 0 -400z"/>
<path d="M14160 1945 l0 -75 160 0 160 0 0 -325 0 -325 75 0 75 0 0 325 0 325
160 0 160 0 0 75 0 75 -395 0 -395 0 0 -75z"/>
<path d="M15140 1785 l0 -235 325 0 325 0 0 -95 0 -95 -325 0 -325 0 0 -70 0
-70 400 0 400 0 0 235 0 235 -330 0 -330 0 0 90 0 90 330 0 330 0 0 75 0 75
-400 0 -400 0 0 -235z"/>
</g>
</svg>
